<svg version="1" xmlns="http://www.w3.org/2000/svg" width="682.667" height="682.667" viewBox="0 0 512.000000 512.000000"><path d="M244 18.8c-3.7.3-18.8 2.7-22.9 3.6-10.8 2.4-32 11.4-43.3 18.5-16.9 10.6-36.2 30.1-45.9 46.5l-3.4 5.7-6-.7c-27.1-3.3-56 4.4-78.4 20.9-7.2 5.2-18 16.4-23.6 24.3-4.8 6.7-11.2 19-14.3 27.4-1.8 4.9-2.6 7.8-4.8 18.5-1.2 5.8-1.1 29 .2 36 8.9 47.8 46.1 83.9 92.9 90.2 3.3.4 77.3.8 164.5.8h158.5l9-2.3c22.8-5.8 40.1-15.6 55.1-31.5 18.8-19.7 28.9-43.7 30.1-71.2 1.3-31.4-9.5-59.2-31.7-81.6-21.5-21.6-50.2-33.3-80-32.4-5.2.2-11.1.6-13 .9-3.2.6-3.7.4-5.4-2.6-4.6-8-14.3-20.4-22-28.1-23.8-23.8-50.9-37.2-85.6-42.3-5-.7-24.6-1.1-30-.6zM159 348.4c-1.9.5-5.1 2.7-7.1 4.7-3.2 3.2-4.5 6.2-10.3 24-3.7 11.2-7.1 21.3-7.6 22.4-1.9 4.8-5.1 15.5-5.6 19.4-1.8 12.8 11 22.8 23.7 18.6 8.3-2.8 9.7-5.3 20.9-39.1 10.6-31.9 11.1-34.5 7.6-41.2-3.9-7.6-13.2-11.3-21.6-8.8zM251.5 347.8c-1.9.4-6.8 3.4-9.1 5.7-2.3 2.2-4.1 7.3-22.6 62.8-20 60.3-20.1 60.5-16.4 67.4 3.2 6.2 8.9 9.6 16.1 9.6 7.8 0 13.2-3.6 16.5-10.8.9-2.2 10-28.7 20-58.9 20-60.2 20.1-60.5 14.9-68-3.9-5.8-12.5-9.2-19.4-7.8zM341.6 348.5c-4.3 1.5-8.2 4.8-10.1 8.5-3 5.9-20.5 60.3-20.5 63.8.1 5 3.1 11.4 6.6 13.9 6.1 4.3 12.8 4.9 20 1.8 6.3-2.9 6.9-4.2 18.4-38.5 10.6-31.8 11.2-35.4 6.4-42.2-4.9-7-13.2-9.9-20.8-7.3z"/></svg>